<svg xmlns="http://www.w3.org/2000/svg" version="1.1" viewBox="0 0 1800 1440" width="450" height="360">
<path transform="translate(0)" d="m0 0h1800v1440h-1800z"/>
<path transform="translate(1144,625)" d="m0 0h12l16 1 20 4 17 6 16 8 11 7 13 12 7 7 11 16 11 19 10 25 7 25 5 27 2 22v16h-2l-7-21-9-19-8-15-14-19-9-11-10-9-13-10-15-9-21-7-21-4-13-1-21 1-25 4-24 6-31 11-30 13-25 12-21 11-22 13-8 5 5 3v1h-7l-3-1-15 9-22 14-5 2-1 5-5-1-16 10-13 8-46 28-16 10-26 15-26 14-32 16-24 11-20 8-22 8-27 8-36 8-30 4h-54l-3-2 4-2 28-4 32-9 24-8 28-11 15-7 23-12 23-13 13-8 10-7 16-10 12-8 17-12 20-14 14-10 12-9 13-10 3-1v-2l6-4 14-11 14-10 18-14 16-12 17-12 14-10 27-18 19-12 16-9 22-12 26-13 28-11 28-9 21-5 16-3z" fill="#2E72A7"/>
<path transform="translate(639,625)" d="m0 0h25l28 4 23 5 36 12 26 11 27 13 23 13 15 9 18 11 16 11 3 2-1 3-11 7-21 16-16 12-2 2h-6l-34-18-27-13-24-10-27-9-25-6-32-5h-11l-22 2-16 3-12 4-19 10-16 11-9 9h-2l-2 4-9 10-7 10-13 22-9 21-8 23h-2v-9l3-28 4-24 5-21 8-23 9-20 9-15 9-12 11-12 15-12 16-9 14-6 19-5z" fill="#F9952C"/>
<path transform="translate(889,532)" d="m0 0h15l16 4 14 7 13 11 8 11 7 14 3 15v15l-4 16-7 14-9 11-12 10-12 6-15 4h-19l-16-4-12-6-9-7-8-8-7-11-5-11-3-14v-15l3-14 5-12 7-10 9-10 13-9 11-4z" fill="#F9952C"/>
<path transform="translate(967,782)" d="m0 0 5 2 16 12 19 14 16 12 17 12 14 10 19 13 26 17 15 9 16 9 28 15 22 10 28 11 32 10 32 7 22 4v2l-7 1h-34l-29-2-30-5-30-7-29-9-34-13-29-13-33-17-39-22-51-31-26-16-5-5 11-4 17-11 20-12z" fill="#F9952C"/>
</svg>